<svg xmlns="http://www.w3.org/2000/svg" width="1024" height="1024" viewBox="0 0 1024 1024" version="1.1"><path d="" stroke="none" fill="#000000" fill-rule="evenodd"/><path d="M 495.968 144.995 C 441.050 149.319, 390.878 174.566, 356.854 215 C 342.746 231.766, 327.746 258.191, 321.710 276.912 L 319.320 284.325 312.624 286.495 C 304.302 289.191, 298.805 294.232, 295.994 301.747 C 294.156 306.659, 294 309.550, 294.006 338.788 C 294.009 357.548, 294.434 372.021, 295.046 374.225 C 296.504 379.475, 301.743 385.946, 307.334 389.403 C 311.932 392.246, 312.575 392.357, 325.799 392.590 L 339.500 392.831 326.893 392.054 C 311.189 391.086, 304.938 388.677, 300.176 381.756 C 295.180 374.494, 294.841 371.418, 295.185 336.464 C 295.498 304.664, 295.513 304.474, 298 299.507 C 301.203 293.110, 307.274 288.500, 314.459 287.009 C 319.757 285.909, 320.004 285.713, 321.153 281.683 C 325.152 267.661, 334.529 248.625, 345.873 231.500 C 352.576 221.381, 357.477 215.487, 367.992 204.904 C 375.421 197.426, 384.200 189.317, 387.500 186.883 C 405.131 173.881, 426.636 162.482, 444.500 156.668 C 470.050 148.352, 485.052 146, 512.545 146 C 523.429 146, 532.146 145.815, 531.917 145.588 C 531.030 144.711, 505.021 144.283, 495.968 144.995 M 542.414 147.598 C 607.882 157.556, 662.535 196.276, 690.896 252.793 C 695.291 261.550, 701.392 276.544, 703.431 283.595 C 703.883 285.160, 705.404 285.996, 709.444 286.900 C 716.353 288.446, 722.113 292.635, 725.683 298.708 L 728.500 303.500 728.800 337.474 C 729.063 367.138, 728.891 371.996, 727.448 375.775 C 725.608 380.593, 720.319 386.236, 715 389.056 C 713.075 390.077, 711.855 390.931, 712.290 390.956 C 714.012 391.052, 720.650 387.025, 723.191 384.342 C 724.671 382.779, 726.799 379.475, 727.919 377 C 729.834 372.769, 729.957 370.533, 729.978 339.616 C 729.993 317.244, 729.624 305.477, 728.824 302.807 C 727.444 298.200, 721.078 290.609, 716.694 288.342 C 715.002 287.467, 711.649 286.244, 709.242 285.625 C 704.918 284.513, 704.836 284.411, 702.361 277.023 C 698.815 266.437, 690.575 248.995, 684.328 238.849 C 662.265 203.017, 630.927 176.348, 591.720 160.039 C 575.247 153.187, 553.567 147.605, 539.500 146.593 C 533.452 146.159, 533.848 146.295, 542.414 147.598 M 490.500 174.892 C 488.300 175.226, 497.525 175.516, 511 175.535 C 532.628 175.565, 536.716 175.834, 545.873 177.829 C 551.578 179.071, 556.423 179.910, 556.641 179.693 C 557.214 179.119, 542.760 176.135, 534 175.018 C 525.898 173.985, 497.017 173.901, 490.500 174.892 M 472.309 178.019 C 418.767 190.114, 374.703 226.834, 353.570 276.970 C 351.607 281.628, 350 286.073, 350 286.848 C 350 287.623, 351.619 290.049, 353.597 292.239 C 360.019 299.347, 360 299.211, 360 338.652 C 360 372.310, 359.885 374.606, 358.003 378.495 C 355.212 384.259, 351.001 387.962, 344.804 390.103 C 341.681 391.181, 340.442 391.948, 341.790 391.967 C 345.059 392.014, 350.980 388.728, 354.638 384.838 C 361.103 377.961, 361 378.704, 361 339.018 C 361 299.031, 361.049 299.381, 354.415 292.037 L 350.635 287.854 352.439 282.548 C 355.420 273.778, 365.082 255.601, 371.997 245.753 C 387.737 223.338, 413.253 201.918, 437 191.185 C 451.343 184.702, 469.123 179.221, 484 176.697 C 486.173 176.328, 486.108 176.266, 483.500 176.220 C 481.850 176.192, 476.814 177.001, 472.309 178.019 M 565.500 182.928 C 586.256 190.165, 602.779 198.586, 616.621 208.982 C 638.165 225.162, 653.758 244.047, 664.936 267.500 C 674.342 287.234, 674.068 286.703, 673.422 284 C 672.166 278.746, 660.596 256.085, 654.474 246.888 C 638.567 222.993, 612.469 201.515, 584.302 189.139 C 575.033 185.066, 560.561 179.952, 558.636 180.069 C 558.011 180.107, 561.100 181.394, 565.500 182.928 M 513.500 209.073 C 524.221 209.497, 535.724 210.525, 539.899 211.430 C 543.969 212.313, 547.492 212.842, 547.728 212.605 C 548.236 212.097, 539.408 210.197, 530.674 208.933 C 527.278 208.442, 517.750 208.103, 509.500 208.180 L 494.500 208.320 513.500 209.073 M 483.500 210.477 C 476.857 212.185, 479.817 212.224, 488 210.536 C 491.575 209.799, 493.150 209.195, 491.500 209.194 C 489.850 209.193, 486.250 209.770, 483.500 210.477 M 466.500 214.901 C 442.319 223.250, 421.545 238.142, 404.707 259.196 C 393.325 273.428, 382.397 298.110, 380.579 313.693 C 380.195 316.983, 380.618 315.976, 381.921 310.500 C 385.857 293.951, 393.061 277.568, 402.363 264.015 C 408.655 254.848, 423.239 239.978, 432 233.798 C 442.044 226.713, 457.110 219.084, 468.321 215.406 C 473.919 213.570, 477.600 212.083, 476.500 212.103 C 475.400 212.122, 470.900 213.382, 466.500 214.901 M 558 216.524 C 563.225 218.398, 567.725 219.931, 568 219.930 C 569.605 219.927, 562.543 216.731, 557.145 215.017 C 547.032 211.807, 547.591 212.792, 558 216.524 M 569.083 220.365 C 569.313 220.565, 572.200 222.196, 575.500 223.989 C 609.905 242.678, 633.930 273.677, 642.545 310.500 C 643.930 316.420, 643.942 316.433, 643.379 311.522 C 642.646 305.119, 637.693 290.339, 633.467 281.939 C 624.500 264.120, 607.877 244.411, 592.684 233.587 C 585.355 228.364, 571.148 220, 569.608 220 C 569.090 220, 568.854 220.164, 569.083 220.365 M 670.162 291.335 C 662.448 299.195, 662 301.661, 662 336.281 C 662 363.814, 661.813 367.214, 659.929 374.020 C 657.135 384.106, 653.050 390.904, 644.051 400.439 C 639.898 404.839, 638.075 407.178, 640 405.635 C 645.750 401.026, 653.907 390.903, 657.030 384.500 C 662.512 373.262, 663 369.375, 663 336.971 C 663 302.192, 663.503 299.234, 670.628 292.109 C 673.052 289.685, 674.887 287.553, 674.705 287.372 C 674.524 287.190, 672.479 288.974, 670.162 291.335 M 644.811 332.026 C 645.159 343.734, 644.859 349.973, 643.593 357.400 C 641.734 368.309, 642.054 371.741, 644.004 361.801 C 645.617 353.581, 646.380 329.022, 645.241 322 C 644.602 318.056, 644.480 320.893, 644.811 332.026 M 378.549 343 C 379.380 376.085, 389.411 402.150, 410.509 426.041 C 421.019 437.944, 439.246 452.057, 453.211 459.107 C 466.677 465.904, 489.750 472.198, 499.860 471.832 C 504.499 471.664, 504.499 471.664, 500.500 471.307 C 455.375 467.278, 412.373 437.877, 392.548 397.500 C 383.762 379.605, 380.219 365.143, 378.953 342 L 378.160 327.500 378.549 343 M 639.121 375.809 C 636.089 384.514, 631.468 390.696, 624.294 395.647 C 612.904 403.506, 601.278 406.895, 582 407.977 L 569.500 408.679 579.500 408.804 C 603.729 409.109, 625.602 400.343, 635.175 386.489 C 637.780 382.719, 642.640 370.307, 641.829 369.495 C 641.622 369.288, 640.403 372.129, 639.121 375.809 M 677.113 393.806 C 669.660 404.465, 661.205 414.411, 655.624 419.084 C 643.738 429.038, 628.050 436.873, 610.500 441.620 C 604.081 443.357, 602.898 443.880, 606.374 443.447 C 617.011 442.122, 636.069 434.095, 648.324 425.778 C 657.263 419.711, 667.288 409.729, 673.371 400.837 L 678.877 392.789 692.189 392.908 C 699.510 392.974, 706.733 392.684, 708.241 392.264 C 709.796 391.830, 704.008 391.500, 694.853 391.500 C 679.144 391.500, 678.683 391.560, 677.113 393.806 M 517.244 398.065 C 511.355 398.523, 509.189 399.190, 505.744 401.609 C 500.384 405.373, 497.043 411.359, 496.493 418.186 L 496.066 423.500 497.053 418 C 498.410 410.443, 502.478 404.195, 507.907 401.328 C 512.103 399.112, 513.279 399.001, 532.407 399.022 C 554.246 399.046, 556.817 399.572, 564.787 405.651 C 566.627 407.054, 568.346 407.988, 568.607 407.726 C 569.461 406.872, 558.604 400.257, 554.500 399.130 C 549.889 397.864, 527.903 397.235, 517.244 398.065 M 633 409.931 C 631.625 410.959, 627.125 413.638, 623 415.886 C 618.875 418.133, 615.884 419.978, 616.354 419.986 C 617.839 420.010, 630.373 413.101, 633.500 410.534 C 637.011 407.653, 636.643 407.209, 633 409.931 M 600 425.066 C 596.451 426.272, 595.729 426.725, 597.964 426.341 C 602.024 425.645, 609.191 423.128, 607 423.169 C 606.175 423.184, 603.025 424.037, 600 425.066 M 497.086 425.290 C 496.968 427.756, 500.316 434.045, 503.153 436.683 C 504.444 437.884, 506.835 439.373, 508.467 439.991 C 512.244 441.422, 550.577 441.460, 555.858 440.038 C 557.956 439.473, 562.334 437.292, 565.586 435.191 C 570.455 432.045, 573.002 431.159, 580 430.174 C 584.675 429.516, 589.850 428.538, 591.500 427.999 L 594.500 427.020 591 427.476 C 571.566 430.009, 570.460 430.262, 567 432.961 C 558.716 439.423, 558.479 439.472, 533.793 439.817 C 514.366 440.089, 510.586 439.897, 507.628 438.494 C 503.932 436.740, 499.436 431.059, 498.031 426.366 C 497.534 424.710, 497.136 424.256, 497.086 425.290 M 591.446 447.144 C 588.726 448.874, 582.228 452.699, 577.007 455.644 C 571.785 458.590, 567.863 461, 568.290 461 C 569.680 461, 579.212 455.881, 587.448 450.712 C 591.876 447.932, 596.850 445.330, 598.500 444.931 C 601.321 444.248, 601.348 444.199, 598.946 444.102 C 597.541 444.046, 594.166 445.415, 591.446 447.144 M 558 464.128 C 551.794 466.613, 535.660 470.188, 527 470.998 L 517.500 471.886 527.500 471.483 C 536.891 471.104, 556.124 466.790, 560.918 463.986 C 562.998 462.770, 561.171 462.858, 558 464.128 M 408 465.480 C 405.525 466.218, 394.408 469.371, 383.295 472.488 C 364.002 477.898, 345.789 484.173, 341.500 486.886 C 338.987 488.475, 340.233 488.071, 352 483.475 C 361.396 479.805, 412.103 464.966, 415 465.039 C 415.825 465.059, 419.200 467.583, 422.500 470.648 C 443.991 490.602, 474.073 502.814, 505.500 504.342 C 512.551 504.685, 514.173 504.580, 511 503.988 C 508.525 503.526, 504.196 503.115, 501.381 503.074 C 493.424 502.959, 479.393 500.215, 469.500 496.839 C 452.438 491.018, 437.994 482.692, 423.676 470.426 C 419.550 466.892, 415.347 464.031, 414.337 464.070 C 413.327 464.108, 410.475 464.743, 408 465.480 M 603.500 467.734 C 593.879 476.235, 582.587 483.687, 570.500 489.511 C 554.056 497.433, 541.446 500.924, 520.500 503.353 C 518.812 503.548, 519.687 503.760, 522.500 503.837 C 540.318 504.324, 574.061 491.612, 593.160 477.218 C 601.822 470.690, 608.376 465.035, 607.855 464.538 C 607.660 464.352, 605.700 465.790, 603.500 467.734 M 617.596 466.960 C 620.398 467.957, 624.223 469.043, 626.096 469.372 C 627.968 469.701, 626.125 468.861, 622 467.504 C 613.376 464.668, 609.976 464.248, 617.596 466.960 M 630.083 470.413 C 630.882 471.203, 649.151 476.182, 649.601 475.732 C 649.851 475.483, 645.774 474.091, 640.541 472.639 C 631.050 470.006, 629.296 469.633, 630.083 470.413 M 664.100 480.871 C 709.359 496.714, 733.325 518.398, 741.059 550.500 C 742.771 557.606, 742.987 562.387, 742.993 593.282 C 742.998 620.543, 742.703 628.776, 741.625 631.355 C 739.664 636.049, 734.362 641.758, 729.595 644.309 L 725.500 646.500 511.500 646.500 C 313.080 646.500, 297.277 646.378, 294.439 644.822 C 289.853 642.308, 285.008 637.051, 282.624 632 C 280.584 627.678, 280.500 626.113, 280.509 592.500 C 280.519 553.513, 280.851 550.895, 287.664 536.008 C 295.592 518.688, 312.701 502.223, 333.849 491.562 C 336.792 490.079, 339 488.666, 338.756 488.423 C 338.513 488.179, 335.205 489.690, 331.407 491.780 C 302.628 507.612, 286.159 527.757, 280.883 553.582 C 279.072 562.445, 278.908 566.542, 279.189 595.947 L 279.500 628.500 282.602 634 C 286.130 640.254, 292.280 645.460, 297.941 646.984 C 300.566 647.691, 369.501 647.939, 513.649 647.761 C 720.906 647.506, 725.585 647.458, 729.403 645.563 C 734.410 643.079, 739.424 638.049, 742.077 632.848 C 744.084 628.914, 744.167 627.317, 744.145 593.125 C 744.124 560.292, 743.959 556.873, 742.038 549.500 C 733.449 516.527, 706.811 493.402, 660.111 478.377 C 647.269 474.246, 649.935 475.912, 664.100 480.871 M 475.667 691.097 C 480.693 692.552, 484 697.253, 484 702.942 C 484 708.905, 481.417 712.495, 475.946 714.134 C 467.848 716.560, 460.178 711.758, 459.269 703.693 C 458.812 699.637, 459.097 698.897, 462.635 694.969 C 465.473 691.818, 465.888 691.003, 464.196 691.903 C 460.910 693.650, 458.008 698.898, 458.004 703.102 C 457.992 713.989, 472.164 719.782, 480.876 712.451 C 483.706 710.070, 485.795 705.846, 485.427 703.250 C 485.330 702.563, 485.194 701.047, 485.125 699.882 C 484.945 696.829, 477.770 689.980, 474.868 690.090 C 472.872 690.166, 472.997 690.324, 475.667 691.097 M 182 749 L 182 805 194 805 L 206 805 206 786.458 L 206 767.916 213.681 768.208 L 221.362 768.500 232.947 786.500 L 244.533 804.500 257.766 804.779 C 267.996 804.995, 270.998 804.768, 270.990 803.779 C 270.984 803.076, 265.364 794.625, 258.501 785 C 242.202 762.143, 243.301 764.320, 247.227 762.672 C 251.610 760.833, 258.577 753.595, 261.583 747.758 C 268.437 734.450, 265.425 715.233, 254.883 705.002 C 244.890 695.305, 235.128 693, 204.042 693 L 182 693 182 749 M 370 749 L 370 805 381.402 805 L 392.803 805 393.157 779.250 C 393.477 755.922, 393.698 753.130, 395.505 749.565 C 398.448 743.759, 402.088 741.500, 408.500 741.500 C 415.445 741.500, 418.917 743.981, 421.206 750.581 C 422.631 754.687, 422.920 759.589, 422.956 780.250 L 423 805 434.566 805 L 446.132 805 445.801 774.750 C 445.443 741.939, 445.175 740.210, 439.226 732.282 C 432.078 722.756, 415.294 718.542, 403.012 723.190 C 400.081 724.299, 392.076 730.170, 392.031 731.243 C 392.014 731.652, 394.005 730.456, 396.456 728.585 C 402.191 724.208, 407.041 722.590, 414.500 722.567 C 424.033 722.537, 429.678 724.642, 435.622 730.441 C 439.873 734.590, 441.183 736.733, 442.903 742.355 C 444.814 748.604, 445 751.635, 445 776.605 L 445 804 434.561 804 L 424.121 804 423.811 777.750 C 423.452 747.419, 422.953 745.245, 415.576 741.895 C 410.368 739.530, 406.577 739.555, 401.207 741.992 C 397.817 743.531, 396.449 744.946, 394.707 748.720 C 392.649 753.178, 392.478 755.203, 392.174 778.750 L 391.848 804 381.424 804 L 371 804 371 749 L 371 694 381.477 694 L 391.954 694 392.252 711.750 L 392.549 729.500 392.775 711.250 L 393 693 381.500 693 L 370 693 370 749 M 500 748.892 L 500 805 523.750 804.983 C 540.804 804.970, 549.473 804.549, 554.500 803.489 C 574.527 799.266, 589.283 784.889, 594.478 764.540 C 596.404 756.997, 596.412 742.373, 594.494 734.240 C 590.267 716.311, 576.661 701.558, 559.072 695.831 C 553.226 693.927, 549.599 693.641, 526.250 693.238 L 500 692.785 500 748.892 M 769 749 L 769 805 780.476 805 L 791.953 805 792.226 787.885 L 792.500 770.771 795.964 775.635 C 797.870 778.311, 799.933 781.021, 800.550 781.657 C 801.166 782.293, 805.232 787.794, 809.585 793.881 L 817.500 804.948 831.250 804.974 C 838.813 804.988, 845 804.618, 845 804.151 C 845 803.285, 820.976 771.303, 815.095 764.340 L 811.852 760.500 814.902 765 C 816.580 767.475, 823.790 777.150, 830.925 786.500 L 843.897 803.500 831.198 803.787 C 819.637 804.048, 818.366 803.901, 817 802.141 C 816.175 801.077, 810.347 793.215, 804.048 784.670 C 797.749 776.124, 792.237 769.354, 791.798 769.625 C 791.359 769.896, 791 777.741, 791 787.059 L 791 804 780.500 804 L 770 804 770 749 L 770 694 780.486 694 L 790.972 694 791.236 725.245 L 791.500 756.489 799.500 746.897 C 803.900 741.621, 809.937 734.324, 812.916 730.680 L 818.332 724.054 831.916 723.746 L 845.500 723.439 831.773 723.219 L 818.045 723 805.875 737.750 C 799.181 745.862, 793.313 752.936, 792.834 753.469 C 792.337 754.021, 791.993 741.772, 792.034 724.969 C 792.073 708.761, 792.082 694.938, 792.053 694.250 C 792.014 693.326, 789.005 693, 780.500 693 L 769 693 769 749 M 183 749 L 183 804 194 804 L 205 804 205 785.500 L 205 767 213.403 767 L 221.807 767 233.648 785.500 L 245.489 804 257.744 804 C 264.485 804, 270 803.802, 270 803.560 C 270 802.951, 249.418 773.342, 245.877 768.856 C 244.294 766.852, 243 764.783, 243 764.258 C 243 763.733, 244.833 762.477, 247.074 761.467 C 252.622 758.965, 259.442 751.098, 262.041 744.202 C 265.168 735.905, 264.549 722.686, 260.662 714.741 C 255.480 704.151, 245.112 697.359, 230.500 694.986 C 227.200 694.450, 215.162 694.009, 203.750 694.006 L 183 694 183 749 M 501 748.900 L 501 804 523.750 803.983 C 539.854 803.970, 548.519 803.537, 553.412 802.501 C 571.898 798.585, 586.081 786.449, 592.074 769.419 C 594.743 761.836, 595.742 745.505, 594.070 736.805 C 591.313 722.463, 581.546 708.634, 568.987 701.292 C 559.205 695.574, 554.227 694.754, 526.250 694.253 L 501 693.800 501 748.900 M 205 731.649 L 205 749.297 216.250 748.742 C 223.321 748.393, 229.080 747.554, 231.754 746.483 C 236.323 744.653, 241.026 739.896, 240.958 737.173 C 240.933 736.173, 240.219 736.807, 239.183 738.748 C 235.844 745.009, 232.043 746.484, 216.589 747.518 L 206 748.227 206 731.508 L 206 714.789 217.750 715.145 C 227.336 715.435, 230.138 715.875, 232.965 717.536 C 237.229 720.041, 239.908 724.460, 240.962 730.729 C 241.748 735.402, 241.767 735.422, 241.882 731.718 C 242.119 724.116, 237.115 717.086, 230 715.025 C 228.075 714.467, 221.662 714.009, 215.750 714.006 L 205 714 205 731.649 M 523 749.596 L 523 785.192 536.750 784.840 C 550.195 784.496, 550.640 784.413, 556.796 781.080 C 568.522 774.733, 572.312 767.318, 572.426 750.500 C 572.516 737.185, 570.780 731.304, 564.734 724.435 C 560.190 719.273, 552.261 714.975, 547.500 715.095 C 545.164 715.153, 545.627 715.444, 549.593 716.407 C 559.118 718.719, 564.643 723.555, 569.186 733.555 C 571.092 737.750, 571.436 740.244, 571.455 750 C 571.475 759.956, 571.162 762.202, 569.126 766.727 C 566.111 773.425, 559.864 779.159, 552.631 781.865 C 548.024 783.589, 544.718 784, 535.462 784 L 524 784 524 749.535 L 524 715.070 534.250 714.746 L 544.500 714.422 533.750 714.211 L 523 714 523 749.596 M 304 722.374 C 296.194 724.523, 291.680 727.226, 285.500 733.454 C 277.475 741.540, 274.896 747.982, 274.240 761.571 C 273.528 776.310, 276.490 785.401, 284.905 794.303 C 293.647 803.551, 304.124 807.463, 318.394 806.808 C 326.078 806.455, 328.542 805.889, 334.173 803.180 C 350.335 795.408, 359.117 779.234, 357.757 759.745 C 356.455 741.093, 344.946 726.993, 327.435 722.594 C 319.985 720.723, 310.327 720.632, 304 722.374 M 635 722.423 C 623.142 725.701, 614.821 732.536, 609.446 743.413 C 606.338 749.700, 605.785 751.926, 605.303 760.084 C 604.063 781.043, 612.795 796.370, 630.196 803.781 C 635.984 806.246, 637.605 806.467, 650 806.483 C 661.451 806.497, 664.676 806.136, 671.250 804.104 L 679 801.709 679 791.354 C 679 785.659, 678.829 781, 678.619 781 C 678.410 781, 675.147 782.182, 671.369 783.627 C 663.174 786.762, 647.630 788.023, 641.623 786.041 C 635.634 784.064, 629 777.237, 629 773.050 C 629 772.343, 637.783 772, 655.893 772 C 686.165 772, 684 772.627, 684 763.860 C 684 749.797, 680.404 738.947, 673.331 731.664 C 664.863 722.946, 647.900 718.856, 635 722.423 M 715.500 722.342 C 704.646 725.177, 696.574 731.803, 694.161 739.858 C 692.602 745.060, 692.693 753.335, 694.352 757.282 C 696.659 762.771, 703.999 768.611, 711.506 770.929 C 715.194 772.068, 719.176 772.963, 720.355 772.917 C 721.535 772.871, 720.025 772.226, 717 771.484 C 700.112 767.341, 693.049 759.422, 694.267 745.993 C 695.347 734.077, 702.504 726.615, 715.932 723.403 C 725.197 721.187, 735.781 721.940, 747.250 725.632 L 752 727.161 752 736.780 C 752 744.262, 751.733 746.133, 750.800 745.200 C 750.140 744.540, 748.903 744.016, 748.050 744.035 C 746.525 744.070, 750.600 746.888, 752.285 746.965 C 752.717 746.984, 752.942 742.388, 752.785 736.750 L 752.500 726.500 745.500 724.158 C 736.922 721.289, 722.802 720.434, 715.500 722.342 M 302.762 723.942 C 283.553 730.083, 273.956 745.509, 275.246 768.174 C 276.592 791.803, 294.481 807.213, 318.923 805.798 C 332.377 805.019, 345.312 797.192, 351.287 786.214 C 358.514 772.936, 358.789 754.729, 351.951 742.349 C 343.034 726.205, 321.219 718.042, 302.762 723.942 M 635.500 723.343 C 613.435 729.100, 601.712 751.181, 607.556 775.977 C 610.874 790.054, 621.578 800.655, 636.500 804.641 C 646.030 807.186, 661.919 806.046, 674.750 801.896 L 678 800.845 678 791.479 L 678 782.112 673.750 783.973 C 663.462 788.478, 645.279 789.269, 637.634 785.545 C 633.196 783.384, 628 776.806, 628 773.350 L 628 771 655 771 C 679.999 771, 682.009 770.870, 682.128 769.250 C 682.198 768.288, 682.361 766.498, 682.490 765.274 C 683.039 760.065, 681.041 745.881, 679.158 741.625 C 676.171 734.871, 668.550 727.724, 661.538 725.100 C 654.265 722.379, 642.293 721.571, 635.500 723.343 M 460.239 763.750 L 460.500 804.500 472.250 804.782 L 484 805.063 484 764.032 L 484 723 471.989 723 L 459.978 723 460.239 763.750 M 461.539 725.250 C 461.320 725.938, 461.289 727.850, 461.471 729.500 C 461.653 731.150, 461.846 748.587, 461.901 768.250 L 462 804 472.500 804 L 483 804 483 764 L 483 724 472.469 724 C 464.923 724, 461.824 724.354, 461.539 725.250 M 832.500 737.181 C 817.922 754.771, 813.771 760, 814.383 760 C 814.682 760, 820.443 753.362, 827.184 745.250 C 833.925 737.138, 839.679 730.275, 839.970 730 C 842.044 728.043, 844.151 725.010, 843.405 725.057 C 842.907 725.089, 838 730.545, 832.500 737.181 M 641.123 740.013 C 635.019 741.434, 629.580 746.832, 628.539 752.500 L 627.988 755.500 629.137 752.500 C 632.106 744.743, 637.017 740.987, 644.381 740.839 C 653.599 740.654, 659.448 744.824, 660.688 752.464 L 661.253 755.948 645.377 756.251 L 629.500 756.555 645.750 756.777 L 662 757 662 754.468 C 662 748.062, 656.977 741.699, 651 740.533 C 649.075 740.158, 646.825 739.710, 646 739.539 C 645.175 739.367, 642.980 739.580, 641.123 740.013 M 722.500 739.730 C 716.215 740.631, 712.674 747.692, 716.750 751.193 C 719.114 753.223, 720.967 753.823, 731.742 756.045 C 742.061 758.174, 747.203 760.450, 751.197 764.658 C 758.904 772.779, 758.998 786.970, 751.403 795.843 C 743.489 805.088, 724.658 808.564, 707.048 804.030 C 694.421 800.779, 695.121 801.593, 694.746 789.733 L 694.422 779.500 694.211 790.215 C 693.966 802.663, 693.180 801.679, 705.940 804.882 C 717.147 807.694, 729.481 807.713, 738.487 804.931 C 743.787 803.294, 746.294 801.782, 750.502 797.681 C 756.710 791.634, 758.416 786.873, 757.806 777.302 C 757.027 765.058, 749.621 758.985, 730.138 754.610 C 723.889 753.207, 718.152 751.541, 717.388 750.907 C 715.419 749.273, 715.668 744.610, 717.829 742.655 C 718.867 741.715, 721.352 740.993, 723.579 740.985 C 725.735 740.976, 728.175 740.533, 729 740 C 730.620 738.953, 728.522 738.866, 722.500 739.730 M 307.309 741.466 C 303.078 743.306, 298.480 749.830, 296.966 756.142 C 295.473 762.365, 296.289 771.605, 298.842 777.376 C 304.182 789.447, 319.617 792.383, 328.905 783.095 C 333.451 778.549, 335 773.505, 335 763.248 C 335 748.493, 328.047 740.006, 316 740.056 C 312.975 740.068, 309.064 740.703, 307.309 741.466 M 307.411 742.891 C 297.259 749.082, 294.033 765.941, 300.668 778.132 C 304.152 784.533, 308.600 787.286, 315.459 787.286 C 322.957 787.286, 328.285 784.075, 331.503 777.618 C 333.589 773.433, 333.996 771.198, 333.978 764.054 C 333.947 751.943, 330.370 744.978, 322.685 742.067 C 318.244 740.384, 310.870 740.782, 307.411 742.891 M 727.194 774.312 C 732.947 775.967, 735 777.576, 735 780.431 C 735 784.948, 732.729 786.393, 724.944 786.833 C 716.526 787.309, 708.486 785.763, 701.783 782.380 C 695.524 779.222, 694.332 779.357, 699.980 782.585 C 706.135 786.103, 714.129 788.067, 722.811 788.193 C 732.194 788.330, 735.500 786.301, 735.500 780.406 C 735.500 777.152, 735.053 776.313, 732.724 775.196 C 731.197 774.465, 728.272 773.662, 726.224 773.414 C 722.855 773.005, 722.947 773.091, 727.194 774.312" stroke="none" fill="#7e8081" fill-rule="evenodd"/><path d="M 484.500 147.100 C 481.200 147.571, 474.997 148.658, 470.715 149.515 C 466.434 150.373, 462.426 150.764, 461.811 150.383 C 461.085 149.934, 460.973 150.148, 461.494 150.990 C 462.101 151.972, 461.640 152.164, 459.614 151.777 C 458.138 151.495, 457.162 151.495, 457.444 151.777 C 457.726 152.059, 452.205 154.175, 445.174 156.480 C 426.022 162.757, 405.660 173.492, 387.500 186.883 C 384.200 189.317, 375.421 197.426, 367.992 204.904 C 349.165 223.854, 336.329 243.350, 325.621 269.262 C 323.629 274.081, 322 278.720, 322 279.571 C 322 280.486, 321.528 280.826, 320.845 280.405 C 320.127 279.960, 319.963 280.130, 320.410 280.854 C 322.117 283.617, 319.927 285.873, 314.431 287.014 C 307.276 288.500, 301.198 293.121, 298 299.507 L 295.500 304.500 295.500 339 C 295.500 369.773, 295.687 373.864, 297.234 376.871 C 298.188 378.726, 298.681 380.708, 298.329 381.276 C 297.978 381.844, 298.161 382.018, 298.736 381.663 C 299.311 381.308, 300.544 382.181, 301.475 383.603 C 302.407 385.025, 305.652 387.325, 308.687 388.714 C 313.318 390.834, 316.278 391.342, 327.103 391.870 C 334.197 392.217, 340.001 392.256, 340 391.957 C 340 391.659, 342 390.880, 344.444 390.226 C 349.968 388.749, 355.224 384.234, 357.932 378.640 C 359.904 374.566, 360 372.716, 360 338.652 C 360 299.211, 360.019 299.347, 353.597 292.239 C 351.619 290.049, 350 287.654, 350 286.916 C 350 284.127, 357.298 268.066, 358.287 268.678 C 358.873 269.039, 359.004 268.816, 358.596 268.155 C 357.699 266.704, 364.355 254.716, 365.487 255.744 C 365.946 256.160, 366.008 255.956, 365.627 255.291 C 363.734 251.993, 397.075 212.692, 400.152 214.594 C 400.810 215, 401.040 214.874, 400.686 214.301 C 399.918 213.059, 408.425 206.788, 409.527 207.783 C 409.964 208.178, 410.027 207.987, 409.669 207.359 C 408.987 206.166, 413.499 202.667, 415.719 202.667 C 416.424 202.667, 416.759 202.425, 416.464 202.130 C 414.383 200.049, 453.313 181.839, 456.126 183.578 C 456.920 184.068, 457.042 183.877, 456.498 182.997 C 455.894 182.020, 456.238 181.829, 457.845 182.249 C 459.032 182.560, 459.789 182.467, 459.528 182.045 C 458.866 180.975, 477.512 176.599, 479.492 177.359 C 480.528 177.756, 480.858 177.579, 480.415 176.863 C 479.942 176.097, 480.857 175.881, 483.348 176.172 C 485.339 176.404, 487.122 176.135, 487.309 175.572 C 487.521 174.936, 495.517 174.401, 508.457 174.157 C 520.398 173.932, 529.030 174.142, 528.716 174.651 C 528.415 175.138, 529.818 175.382, 531.834 175.193 C 535.990 174.803, 556.342 178.687, 556.798 179.957 C 556.962 180.414, 558.045 180.540, 559.204 180.236 C 560.768 179.827, 561.103 180.024, 560.502 180.997 C 559.993 181.820, 560.083 182.067, 560.743 181.659 C 562.336 180.674, 568.068 182.082, 567.329 183.276 C 566.978 183.845, 567.173 184.011, 567.764 183.646 C 569.324 182.682, 583.116 188.003, 582.335 189.267 C 581.953 189.885, 582.177 190.009, 582.887 189.570 C 584.491 188.578, 601.187 196.889, 600.341 198.258 C 599.983 198.836, 600.161 199.019, 600.736 198.663 C 602.214 197.750, 611.156 202.938, 610.350 204.243 C 609.988 204.829, 610.147 205.027, 610.703 204.683 C 611.942 203.918, 622.610 211.760, 622.225 213.153 C 622.074 213.701, 622.335 213.911, 622.804 213.621 C 624.136 212.798, 631.111 219, 630.349 220.330 C 629.981 220.974, 630.062 221.152, 630.529 220.727 C 631.633 219.724, 640.105 228.021, 639.302 229.320 C 638.966 229.864, 639.159 230.019, 639.732 229.666 C 641.067 228.841, 650.201 239.866, 649.339 241.261 C 648.982 241.837, 649.156 242.022, 649.723 241.671 C 650.814 240.997, 656.333 248.562, 656.333 250.730 C 656.333 251.429, 656.557 251.777, 656.830 251.504 C 657.691 250.643, 661.077 257.067, 660.367 258.215 C 659.995 258.817, 660.145 259.029, 660.699 258.686 C 661.833 257.985, 672.787 280.150, 673.222 284.025 C 673.375 285.386, 673.948 286.820, 674.495 287.211 C 675.548 287.962, 672.014 291.127, 670.895 290.435 C 670.139 289.968, 667.182 293.091, 667.046 294.500 C 666.819 296.834, 664.580 301.859, 663.942 301.464 C 663.560 301.228, 663.166 315.879, 663.068 334.021 C 662.892 366.429, 662.769 367.966, 659.411 379.739 C 659.060 380.970, 658.304 381.688, 657.732 381.334 C 657.126 380.960, 656.990 381.175, 657.407 381.850 C 658.332 383.346, 653.993 391.114, 652.684 390.305 C 652.138 389.967, 651.988 390.171, 652.351 390.758 C 653.071 391.924, 645.442 401.217, 640.250 405.498 C 638.462 406.972, 637 407.957, 637 407.688 C 637 407.418, 635.678 408.433, 634.061 409.943 C 630.330 413.428, 617.314 420.312, 615.996 419.498 C 615.448 419.159, 615 419.286, 615 419.780 C 615 420.951, 610.101 423.180, 609.010 422.506 C 608.549 422.221, 608 422.500, 607.791 423.127 C 607.582 423.754, 606.013 424.319, 604.304 424.383 C 602.595 424.447, 601.404 424.837, 601.657 425.250 C 602.082 425.941, 600.902 426.195, 596.250 426.417 C 595.288 426.463, 594.260 426.818, 593.968 427.207 C 593.421 427.933, 577.195 431, 573.903 431 C 572.893 431, 569.262 432.813, 565.833 435.030 C 562.403 437.246, 558.990 438.826, 558.247 438.541 C 557.504 438.256, 557.141 438.418, 557.439 438.902 C 558.412 440.475, 551.476 441.067, 531.731 441.095 C 512.433 441.122, 506.519 440.587, 507.559 438.905 C 507.859 438.420, 507.478 438.263, 506.712 438.557 C 505.947 438.851, 504.686 438.309, 503.910 437.354 C 502.683 435.841, 502.694 435.726, 504 436.468 C 504.894 436.976, 505.163 436.953, 504.667 436.410 C 504.208 435.910, 503.323 435.500, 502.698 435.500 C 500.885 435.500, 497.191 428.022, 496.491 422.936 C 496.138 420.371, 496.333 416.479, 496.923 414.287 C 498.230 409.430, 502.247 403.399, 503.923 403.775 C 504.597 403.926, 504.889 403.629, 504.571 403.115 C 503.420 401.253, 512.325 398.164, 519.500 397.936 C 535.047 397.442, 553.107 398.018, 552.507 398.989 C 552.163 399.545, 552.543 399.729, 553.378 399.408 C 555.125 398.738, 562.202 401.864, 561.502 402.997 C 561.238 403.424, 561.804 403.712, 562.761 403.637 C 563.723 403.561, 564.377 404.092, 564.225 404.824 C 564.074 405.553, 564.395 405.874, 564.939 405.538 C 565.482 405.202, 566.733 405.731, 567.717 406.714 C 569.222 408.215, 571.287 408.500, 580.673 408.500 C 586.814 408.500, 591.639 408.302, 591.396 408.060 C 590.671 407.339, 608.266 404.046, 609.330 404.704 C 609.874 405.040, 609.992 404.796, 609.595 404.155 C 608.927 403.073, 610.365 402.592, 613.817 402.742 C 614.541 402.774, 614.865 402.532, 614.537 402.204 C 613.655 401.322, 621.091 397.938, 622.287 398.677 C 622.856 399.029, 623.007 398.820, 622.627 398.205 C 621.830 396.916, 625.358 394.728, 626.529 395.785 C 626.964 396.178, 627.011 395.960, 626.632 395.300 C 626.241 394.619, 626.778 393.654, 627.874 393.067 C 630.500 391.662, 636.442 383.332, 638.051 378.803 C 638.773 376.770, 639.801 375.377, 640.336 375.708 C 640.871 376.038, 641.013 375.830, 640.652 375.245 C 639.936 374.088, 642.304 363.638, 643.102 364.435 C 643.370 364.703, 643.400 363.304, 643.169 361.325 C 642.938 359.346, 643.143 357.970, 643.625 358.267 C 644.107 358.565, 644.658 351.108, 644.852 341.654 C 645.045 332.219, 645.452 324.093, 645.756 323.595 C 646.062 323.095, 645.741 323.042, 645.037 323.477 C 644.065 324.078, 643.858 323.289, 644.159 320.132 C 644.376 317.859, 644.255 316, 643.890 316 C 643.525 316, 642.914 313.912, 642.531 311.361 C 641.564 304.910, 635.444 287.567, 631.892 281.207 C 630.265 278.296, 629.247 275.371, 629.628 274.707 C 630.009 274.043, 629.960 273.826, 629.520 274.224 C 629.079 274.622, 627.371 272.822, 625.724 270.224 C 621.119 262.960, 614.854 255.100, 608.408 248.498 C 605.186 245.199, 602.538 242.050, 602.525 241.500 C 602.511 240.950, 602.039 240.500, 601.476 240.500 C 599.804 240.500, 595.006 236.327, 595.784 235.549 C 596.178 235.156, 596.050 234.974, 595.500 235.146 C 593.932 235.636, 588.039 231.746, 588.709 230.662 C 589.039 230.128, 588.869 229.963, 588.331 230.295 C 587.793 230.628, 584.911 229.454, 581.927 227.688 C 578.942 225.921, 574.813 223.592, 572.750 222.511 C 570.688 221.430, 569 220.212, 569 219.804 C 569 219.396, 568.251 219.350, 567.336 219.701 C 566.128 220.165, 565.896 219.977, 566.490 219.015 C 566.998 218.194, 566.920 217.932, 566.285 218.324 C 565.016 219.108, 551.638 214.695, 552.543 213.791 C 552.903 213.430, 552.253 213.383, 551.099 213.684 C 549.846 214.012, 549 213.759, 549 213.058 C 549 212.411, 548.590 212.136, 548.088 212.446 C 547.586 212.756, 543.874 212.293, 539.838 211.417 C 528.353 208.925, 499.586 208.362, 488.717 210.416 C 483.886 211.330, 479.537 211.832, 479.052 211.532 C 478.567 211.233, 478.020 211.328, 477.835 211.744 C 477.258 213.047, 463.062 217.153, 461.749 216.398 C 461.062 216.003, 460.845 216.059, 461.267 216.523 C 462.256 217.611, 456.160 220.200, 454.647 219.335 C 454.016 218.974, 453.838 219.052, 454.251 219.508 C 455.163 220.513, 437.891 230.051, 436.602 229.254 C 436.101 228.944, 435.961 229.128, 436.291 229.662 C 436.961 230.746, 431.068 234.636, 429.500 234.146 C 428.950 233.974, 428.835 234.168, 429.244 234.577 C 430.036 235.370, 426.014 238.650, 424.750 238.242 C 424.338 238.109, 424.067 238.338, 424.149 238.750 C 424.230 239.163, 420.518 243.355, 415.899 248.066 C 406.286 257.869, 399.021 267.940, 393.123 279.637 C 388.753 288.303, 382 307.306, 382 310.936 C 382 312.136, 381.661 312.908, 381.246 312.652 C 380.831 312.396, 380.472 313.382, 380.448 314.843 C 380.311 323.157, 379.914 327.065, 379.250 326.653 C 378.276 326.050, 378.742 342.883, 380.030 354.817 C 380.582 359.942, 380.732 364.624, 380.363 365.222 C 379.961 365.871, 380.156 366.022, 380.845 365.595 C 381.567 365.149, 382 365.612, 382 366.829 C 382 370.727, 387.155 386.425, 391.366 395.351 C 393.740 400.383, 398.192 408.175, 401.258 412.666 C 404.325 417.158, 406.534 421.168, 406.167 421.577 C 405.800 421.986, 406.013 422.027, 406.641 421.669 C 407.653 421.091, 411.407 425.387, 411.474 427.200 C 411.512 428.236, 414 430.546, 414 429.545 C 414 429.075, 414.889 429.495, 415.976 430.479 C 417.063 431.462, 417.743 432.606, 417.487 433.020 C 417.231 433.435, 417.692 434.329, 418.511 435.009 C 419.330 435.689, 420 435.935, 420 435.556 C 420 435.177, 422.690 436.981, 425.978 439.564 C 429.266 442.147, 431.761 444.577, 431.522 444.964 C 431.283 445.350, 431.645 445.667, 432.325 445.667 C 434.443 445.667, 439.017 449.164, 438.337 450.264 C 437.982 450.839, 438.166 451.015, 438.747 450.657 C 439.327 450.298, 442.884 451.895, 446.651 454.206 C 450.418 456.516, 456.978 459.825, 461.229 461.558 C 465.480 463.291, 468.780 464.887, 468.562 465.104 C 468.345 465.322, 469.142 465.574, 470.333 465.664 C 473.954 465.939, 483.141 468.526, 482.560 469.107 C 482.260 469.406, 483.426 469.444, 485.150 469.191 C 487.303 468.875, 488.067 469.083, 487.590 469.854 C 487.169 470.535, 487.427 470.773, 488.244 470.460 C 488.986 470.175, 493.397 470.444, 498.046 471.057 C 509.396 472.555, 519.046 472.883, 518.345 471.749 C 518.016 471.216, 520.921 470.973, 525.298 471.167 C 529.433 471.350, 532.641 471.219, 532.427 470.876 C 531.860 469.968, 541.861 468.796, 543.187 469.616 C 543.915 470.066, 544.027 469.853, 543.506 469.010 C 542.902 468.032, 543.351 467.834, 545.321 468.211 C 546.943 468.521, 547.701 468.326, 547.313 467.698 C 546.926 467.071, 547.547 466.910, 548.943 467.275 C 550.183 467.599, 550.920 467.587, 550.581 467.248 C 550.242 466.908, 552.542 465.833, 555.692 464.859 C 558.842 463.884, 561.604 463.271, 561.829 463.496 C 562.054 463.721, 562.918 463.225, 563.748 462.395 C 564.578 461.564, 565.846 461.111, 566.564 461.386 C 567.283 461.662, 568.012 461.557, 568.185 461.153 C 568.836 459.633, 580.132 453.963, 581.197 454.622 C 581.809 455, 582.033 454.862, 581.695 454.316 C 580.938 453.090, 588.392 448.755, 589.513 449.769 C 589.957 450.171, 590.048 450.020, 589.715 449.433 C 588.933 448.057, 594.639 444.659, 596.157 445.597 C 596.919 446.068, 597.035 445.865, 596.499 444.998 C 595.865 443.973, 596.488 443.818, 599.367 444.285 C 601.390 444.613, 602.818 444.514, 602.541 444.066 C 602.263 443.617, 603.941 442.948, 606.268 442.578 C 617.273 440.832, 634.961 433.365, 647.500 425.170 C 651.350 422.654, 654.871 420.697, 655.324 420.822 C 655.778 420.947, 655.885 420.623, 655.563 420.101 C 655.240 419.580, 656.375 418.157, 658.085 416.939 C 659.795 415.722, 663.923 411.300, 667.258 407.113 C 670.593 402.926, 673.733 399.624, 674.235 399.775 C 674.738 399.926, 674.898 399.644, 674.591 399.148 C 674.285 398.652, 675.039 396.814, 676.267 395.064 L 678.500 391.882 695.250 391.776 C 704.987 391.714, 712 391.275, 712 390.728 C 712 390.210, 712.698 390.054, 713.552 390.382 C 714.566 390.771, 714.856 390.575, 714.388 389.819 C 713.905 389.038, 714.231 388.875, 715.388 389.319 C 716.332 389.681, 716.898 389.643, 716.645 389.235 C 716.393 388.827, 717.959 387.160, 720.126 385.531 C 722.391 383.826, 725.134 380.382, 726.582 377.423 L 729.099 372.278 728.799 337.889 L 728.500 303.500 725.683 298.708 C 722.124 292.653, 716.357 288.447, 709.514 286.916 L 704.176 285.721 701.943 279.111 C 700.716 275.475, 698.445 269.389, 696.898 265.586 C 695.351 261.783, 694.360 258.226, 694.697 257.681 C 695.034 257.137, 694.869 256.963, 694.330 257.296 C 693.248 257.964, 685.302 242.348, 685.833 240.597 C 686.017 239.994, 685.830 239.836, 685.419 240.247 C 685.008 240.658, 681.859 236.833, 678.420 231.747 C 674.982 226.661, 670.129 220.057, 667.636 217.070 C 665.143 214.084, 663.339 211.261, 663.626 210.796 C 663.914 210.331, 663.553 210.074, 662.824 210.225 C 662.096 210.376, 661.613 209.937, 661.750 209.250 C 661.888 208.562, 661.629 208.112, 661.175 208.250 C 660.139 208.564, 647.419 195.770, 647.754 194.750 C 647.889 194.338, 647.662 194.100, 647.250 194.221 C 646.283 194.507, 625.988 179.345, 626.565 178.768 C 626.804 178.529, 626.437 178.307, 625.750 178.275 C 625.062 178.243, 619.374 175.257, 613.108 171.639 C 606.843 168.021, 600.201 164.561, 598.349 163.950 C 596.497 163.339, 595.234 162.430, 595.543 161.931 C 595.851 161.431, 595.332 161.319, 594.388 161.681 C 593.292 162.102, 592.912 161.951, 593.337 161.263 C 593.768 160.566, 593.241 160.386, 591.845 160.751 C 590.238 161.171, 589.894 160.980, 590.498 160.003 C 591.017 159.163, 590.918 158.933, 590.222 159.362 C 589.625 159.732, 586.181 158.922, 582.568 157.562 C 573.149 154.016, 553.280 149.259, 540.576 147.507 C 528.662 145.863, 494.885 145.618, 484.500 147.100 M 608.015 464.009 C 607.999 465.573, 604.126 468.604, 602.676 468.187 C 602.222 468.057, 602.103 468.357, 602.410 468.854 C 603.162 470.070, 594.005 477.121, 592.712 476.322 C 592.144 475.971, 591.994 476.181, 592.373 476.795 C 593.170 478.084, 589.642 480.272, 588.471 479.215 C 588.036 478.822, 588.003 479.063, 588.399 479.750 C 589.056 480.892, 587.873 481.475, 585.676 481.094 C 585.222 481.015, 585.095 481.345, 585.394 481.828 C 586.151 483.053, 566.276 493.289, 564.851 492.408 C 564.168 491.986, 563.960 492.126, 564.344 492.748 C 565.114 493.994, 559.264 496.281, 557.731 495.334 C 557.159 494.980, 556.957 495.122, 557.283 495.649 C 557.947 496.724, 542.147 501.306, 531.654 503.081 C 527.889 503.717, 522.820 504.014, 520.389 503.740 C 517.958 503.466, 515.698 503.680, 515.367 504.215 C 515.005 504.801, 511.532 504.940, 506.633 504.565 C 490.289 503.314, 486.991 502.824, 487.656 501.747 C 488.046 501.116, 487.830 500.987, 487.118 501.427 C 485.634 502.344, 477.817 501.105, 478.465 500.056 C 478.726 499.634, 477.761 499.514, 476.321 499.789 C 474.351 500.166, 473.902 499.968, 474.506 498.990 C 475.041 498.124, 474.916 497.934, 474.131 498.419 C 472.452 499.457, 459.824 495.094, 460.647 493.762 C 461.011 493.173, 460.852 492.974, 460.292 493.319 C 458.827 494.225, 450.936 490.913, 451.682 489.705 C 452.027 489.147, 451.831 488.986, 451.247 489.347 C 449.833 490.221, 438.936 483.912, 439.707 482.665 C 440.038 482.129, 439.872 481.961, 439.338 482.291 C 437.643 483.339, 421.500 471.216, 421.500 468.895 C 421.500 468.403, 421.050 467.962, 420.500 467.915 C 418.942 467.782, 416.969 465.860, 417.503 464.995 C 418.224 463.828, 411.971 465.407, 385 473.201 C 371.525 477.095, 359.530 480.330, 358.345 480.390 C 357.161 480.451, 356.400 480.837, 356.655 481.250 C 357.084 481.945, 355.222 482.377, 352.261 482.270 C 351.579 482.246, 351.218 482.543, 351.458 482.931 C 351.697 483.319, 350.230 484.226, 348.197 484.946 C 346.164 485.666, 342.751 487.086, 340.614 488.103 C 338.477 489.119, 336.227 489.664, 335.614 489.315 C 335.001 488.965, 334.837 489.051, 335.249 489.505 C 336.020 490.356, 324.484 497.288, 322.250 497.317 C 321.563 497.326, 321.210 497.543, 321.466 497.800 C 321.723 498.056, 320.035 499.632, 317.716 501.302 C 299.233 514.613, 287.609 530.796, 282.377 550.500 C 280.735 556.683, 280.517 561.583, 280.509 592.500 C 280.500 626.265, 280.576 627.665, 282.660 632.173 C 283.848 634.744, 284.523 637.178, 284.160 637.584 C 283.797 637.989, 283.995 638.039, 284.599 637.694 C 285.644 637.099, 290.668 641.856, 290.290 643.083 C 290.192 643.404, 290.649 643.709, 291.306 643.760 C 293.293 643.916, 300.049 646.618, 299.592 647.074 C 299.358 647.308, 394.486 647.500, 510.988 647.500 C 627.489 647.500, 722.600 647.163, 722.345 646.750 C 722.091 646.337, 722.826 646, 723.981 646 C 729.514 646, 738.687 638.387, 741.625 631.355 C 742.703 628.776, 742.998 620.543, 742.993 593.282 C 742.987 562.387, 742.771 557.606, 741.059 550.500 C 738.813 541.179, 735.173 532.565, 730.782 526.183 C 729.069 523.693, 727.667 521.078, 727.667 520.372 C 727.667 519.666, 727.356 519.280, 726.977 519.514 C 726.034 520.097, 719.419 511.749, 719.834 510.500 C 720.017 509.950, 719.879 509.788, 719.527 510.140 C 719.175 510.492, 714.750 507.667, 709.693 503.863 C 704.637 500.058, 695.686 494.535, 689.802 491.588 C 683.917 488.641, 679.417 485.881, 679.802 485.455 C 680.186 485.028, 680.007 484.960, 679.404 485.304 C 677.897 486.162, 659.768 479.584, 660.729 478.528 C 661.153 478.061, 660.958 477.990, 660.296 478.370 C 658.777 479.242, 653.843 478.063, 654.508 476.987 C 654.780 476.547, 654.102 476.422, 653.001 476.710 C 651.901 476.998, 651 476.773, 651 476.210 C 651 475.648, 650.030 475.441, 648.844 475.751 C 647.237 476.171, 646.894 475.980, 647.498 475.003 C 648.045 474.119, 647.920 473.931, 647.116 474.428 C 645.497 475.429, 635.945 472.898, 636.704 471.669 C 637.037 471.131, 636.799 471.006, 636.175 471.392 C 635.552 471.777, 630.195 470.671, 624.271 468.933 C 618.347 467.196, 612.600 465.527, 611.500 465.225 C 610.400 464.923, 609.169 464.186, 608.765 463.588 C 608.296 462.892, 608.025 463.044, 608.015 464.009 M 744.328 575.500 C 744.333 579.350, 744.513 580.802, 744.730 578.728 C 744.946 576.653, 744.943 573.503, 744.722 571.728 C 744.501 569.952, 744.324 571.650, 744.328 575.500 M 470.500 690 C 470.160 690.550, 469.061 691, 468.057 691 C 467.054 691, 464.553 692.859, 462.501 695.131 C 459.103 698.892, 458.814 699.657, 459.269 703.693 C 460.178 711.758, 467.848 716.560, 475.946 714.134 C 481.478 712.477, 484 708.917, 484 702.765 C 484 698.452, 483.554 697.354, 480.600 694.400 C 478.730 692.530, 476.255 691, 475.100 691 C 473.945 691, 473 690.550, 473 690 C 473 689.450, 472.577 689, 472.059 689 C 471.541 689, 470.840 689.450, 470.500 690 M 523.750 693.749 L 501 694.038 501 749.019 L 501 804 523.750 803.983 C 549.737 803.963, 556.569 802.960, 567.561 797.552 C 572.442 795.150, 576.454 792.144, 580.561 787.810 C 583.827 784.363, 586.871 781.657, 587.324 781.796 C 587.778 781.936, 587.872 781.601, 587.533 781.053 C 587.194 780.505, 587.604 779.007, 588.445 777.725 C 592.113 772.127, 594.166 763.484, 594.832 750.832 C 595.200 743.865, 595.289 738.376, 595.031 738.634 C 594.509 739.158, 591.921 729.714, 591.664 726.345 C 591.574 725.161, 591.086 724.447, 590.580 724.760 C 590.071 725.074, 589.954 724.562, 590.319 723.612 C 590.762 722.456, 590.599 722.130, 589.819 722.612 C 589.038 723.095, 588.875 722.769, 589.319 721.612 C 589.681 720.668, 589.575 720.145, 589.084 720.448 C 588.592 720.752, 587.030 719.020, 585.611 716.599 C 579.240 705.728, 560.922 695, 548.731 695 C 547.086 695, 546.143 694.577, 546.500 694 C 546.840 693.450, 546.979 693.104, 546.809 693.230 C 546.639 693.357, 536.263 693.590, 523.750 693.749 M 183 749 L 183 804 194 804 L 205 804 205 785.500 L 205 767 213.413 767 L 221.825 767 231.437 782.056 C 236.724 790.336, 240.744 797.606, 240.370 798.210 C 239.977 798.847, 240.148 799.026, 240.779 798.637 C 241.385 798.262, 242.655 799.301, 243.649 800.982 L 245.431 804 257.716 804 C 264.472 804, 270 803.795, 270 803.544 C 270 803.294, 268.210 800.534, 266.023 797.412 C 263.836 794.289, 262.330 791.275, 262.678 790.713 C 263.040 790.127, 262.816 789.996, 262.155 790.405 C 261.106 791.052, 260.536 789.806, 260.906 787.676 C 260.985 787.222, 260.634 787.108, 260.127 787.422 C 259.619 787.736, 257.832 785.856, 256.156 783.246 C 254.480 780.636, 251.297 776.074, 249.083 773.108 C 246.869 770.142, 245.303 767.319, 245.603 766.833 C 245.903 766.348, 245.579 766.074, 244.884 766.225 C 244.188 766.376, 243.461 765.789, 243.269 764.920 C 243.038 763.877, 244.294 762.720, 246.965 761.516 C 249.191 760.512, 251.510 759.091, 252.119 758.357 C 252.728 757.623, 253.575 757.237, 254 757.500 C 254.760 757.970, 256.929 755.980, 256.726 755 C 256.669 754.725, 257.783 752.475, 259.200 750 C 263.338 742.777, 264.271 738.544, 263.817 729.051 C 263.298 718.190, 260.162 711.129, 252.997 704.687 C 243.522 696.168, 233.589 694.014, 203.750 694.006 L 183 694 183 749 M 371 749 L 371 804 381.500 804 L 392 804 392 781.549 C 392 760.079, 393.127 748.342, 395.073 749.545 C 395.570 749.852, 395.681 749.332, 395.319 748.388 C 394.875 747.231, 395.038 746.905, 395.819 747.388 C 396.547 747.838, 396.779 747.587, 396.443 746.712 C 395.765 744.946, 398.520 742.585, 400.111 743.568 C 400.840 744.019, 401.047 743.886, 400.640 743.227 C 399.830 741.916, 403.510 740.579, 405.146 741.590 C 405.870 742.037, 406.040 741.873, 405.595 741.155 C 405.119 740.383, 405.847 740, 407.792 740 C 411.478 740, 417.153 741.943, 416.510 742.985 C 416.241 743.419, 416.748 743.712, 417.636 743.637 C 418.575 743.557, 420.137 745.171, 421.375 747.500 C 423.359 751.235, 423.521 753.237, 423.811 777.750 L 424.121 804 434.561 804 L 445 804 445 776.682 C 445 754.954, 444.684 748.298, 443.455 744.159 C 442.605 741.297, 442.224 738.446, 442.609 737.823 C 443.038 737.130, 442.862 736.967, 442.155 737.405 C 441.520 737.797, 441 737.631, 441 737.037 C 441 735.132, 433.043 727.248, 429.353 725.497 C 425.887 723.852, 409.920 720.777, 409.083 721.593 C 408.854 721.817, 409.304 722.030, 410.083 722.067 C 411.691 722.144, 402.399 725.054, 399.821 725.281 C 398.898 725.362, 398.223 725.710, 398.321 726.053 C 398.420 726.397, 397.002 727.946, 395.170 729.495 C 393.176 731.182, 391.920 731.748, 392.039 730.906 C 392.148 730.133, 392.184 721.513, 392.118 711.750 L 392 694 381.500 694 L 371 694 371 749 M 770 749 L 770 804 780.500 804 L 791 804 791 787.059 C 791 777.741, 791.392 769.876, 791.870 769.580 C 793.020 768.869, 801.147 780.497, 800.219 781.525 C 799.823 781.963, 799.961 782.060, 800.524 781.741 C 801.087 781.423, 804.687 785.444, 808.524 790.679 C 812.361 795.913, 816.175 801.069, 817 802.135 C 818.367 803.903, 819.623 804.049, 831.196 803.787 L 843.893 803.500 831.342 787 C 810.287 759.321, 812 762.029, 814.023 759.601 C 814.987 758.446, 821.765 750.300, 829.088 741.500 C 836.410 732.700, 842.873 725.169, 843.450 724.765 C 844.028 724.361, 838.622 724.024, 831.438 724.015 L 818.377 724 812.938 730.637 C 798.116 748.724, 794.800 752.478, 793.865 752.225 C 793.308 752.074, 793.105 752.361, 793.415 752.862 C 793.724 753.363, 793.308 754.329, 792.489 755.009 C 791.176 756.099, 791 752.571, 791 725.122 L 791 694 780.500 694 L 770 694 770 749 M 205 731.649 L 205 749.297 216.250 748.742 C 223.321 748.393, 229.080 747.554, 231.754 746.483 C 236.744 744.485, 241.361 739.488, 240.667 736.836 C 240.403 735.826, 240.595 735, 241.094 735 C 242.505 735, 242.160 728.318, 240.548 724.462 C 238.721 720.088, 234.527 716.337, 230 715.025 C 228.075 714.467, 221.662 714.009, 215.750 714.006 L 205 714 205 731.649 M 523 749.596 L 523 785.192 536.750 784.802 C 548.789 784.460, 551.085 784.116, 555.201 782.031 C 557.786 780.721, 559.629 779.209, 559.296 778.670 C 558.949 778.108, 559.209 778.011, 559.909 778.444 C 562.806 780.234, 572.380 766.042, 570.417 762.865 C 569.980 762.159, 570.122 761.957, 570.772 762.359 C 573.733 764.189, 573.497 742.511, 570.461 733.756 C 567.094 724.047, 554.441 714.121, 546.851 715.235 C 545.283 715.465, 544 715.282, 544 714.827 C 544 714.372, 539.275 714, 533.500 714 L 523 714 523 749.596 M 307.576 722.122 C 307.799 722.484, 306.469 723.065, 304.618 723.412 C 302.768 723.759, 299.094 725.137, 296.454 726.473 C 293.813 727.810, 291.270 728.667, 290.802 728.377 C 290.334 728.088, 290.047 728.222, 290.165 728.676 C 290.282 729.129, 288.291 731.660, 285.741 734.301 C 283.190 736.941, 280.822 739.985, 280.479 741.065 C 280.137 742.145, 279.444 742.774, 278.939 742.463 C 278.434 742.150, 278.318 742.666, 278.681 743.612 C 279.164 744.868, 278.985 745.109, 278.015 744.510 C 277.175 743.990, 276.931 744.079, 277.348 744.754 C 277.710 745.339, 277.274 748.671, 276.380 752.159 C 274.179 760.747, 274.875 774.667, 277.840 781.371 C 279.019 784.037, 279.690 786.731, 279.332 787.359 C 278.973 787.986, 279.036 788.178, 279.471 787.785 C 279.907 787.392, 282.004 789.256, 284.132 791.928 C 286.259 794.600, 288.703 797.056, 289.563 797.386 C 290.476 797.736, 290.826 798.509, 290.403 799.243 C 290.005 799.934, 290.031 800.183, 290.461 799.795 C 290.892 799.407, 293.326 800.133, 295.872 801.408 C 303.240 805.099, 310.178 806.330, 319.347 805.573 C 331.658 804.557, 331.865 804.531, 331.409 804.076 C 330.861 803.528, 341.104 797.785, 342.750 797.718 C 343.437 797.690, 343.783 797.450, 343.518 797.185 C 343.253 796.920, 344.647 794.920, 346.615 792.741 C 354.117 784.437, 357.690 772.468, 356.538 759.500 C 356.147 755.100, 355.753 750.525, 355.663 749.333 C 355.573 748.142, 355.317 747.350, 355.093 747.574 C 354.868 747.798, 353.584 745.757, 352.238 743.037 C 350.892 740.317, 347.415 735.845, 344.510 733.098 C 341.606 730.351, 339.515 727.783, 339.865 727.392 C 340.214 727, 339.999 726.965, 339.386 727.315 C 338.773 727.664, 336.433 727.061, 334.184 725.975 C 331.936 724.889, 329.373 724, 328.489 724 C 327.529 724, 327.169 723.535, 327.595 722.845 C 327.988 722.211, 327.880 721.956, 327.355 722.281 C 326.830 722.605, 322.074 722.554, 316.785 722.167 C 311.496 721.780, 307.352 721.760, 307.576 722.122 M 635.500 723.343 C 632.750 724.061, 628.643 725.608, 626.374 726.781 C 624.104 727.954, 621.929 728.596, 621.540 728.207 C 621.152 727.818, 620.983 727.994, 621.167 728.598 C 621.350 729.202, 619.602 731.603, 617.281 733.934 C 602.288 748.997, 602.375 779.791, 617.450 793.953 C 618.819 795.239, 619.655 796.788, 619.309 797.395 C 618.963 798.003, 619.027 798.187, 619.452 797.805 C 619.876 797.422, 622.641 798.474, 625.596 800.141 C 628.550 801.808, 633.337 803.803, 636.234 804.574 C 646.034 807.183, 661.790 806.088, 674.750 801.896 L 678 800.845 678 791.481 C 678 785.482, 677.585 781.862, 676.845 781.405 C 676.163 780.983, 675.961 781.128, 676.352 781.760 C 677.191 783.118, 668.660 786.467, 666.486 785.633 C 665.611 785.297, 665.151 785.435, 665.462 785.938 C 666.255 787.222, 656.326 788.306, 648.263 787.815 C 644.509 787.587, 639.780 786.571, 637.634 785.533 C 633.201 783.388, 628 776.811, 628 773.350 L 628 771 655 771 C 679.999 771, 682.009 770.870, 682.128 769.250 C 682.198 768.288, 682.361 766.498, 682.490 765.274 C 683.031 760.143, 681.047 745.894, 679.214 741.751 C 678.127 739.294, 675.235 735.193, 672.788 732.639 C 670.341 730.085, 668.600 727.734, 668.919 727.414 C 669.239 727.095, 669.050 726.965, 668.500 727.125 C 667.950 727.285, 664.844 726.403, 661.597 725.165 C 654.283 722.376, 642.391 721.545, 635.500 723.343 M 715 723.695 C 711.975 724.505, 708.746 725.227, 707.823 725.299 C 706.901 725.370, 706.305 725.684, 706.498 725.997 C 706.691 726.309, 705.283 727.638, 703.369 728.950 C 695.039 734.657, 691.612 748.040, 696.038 757.578 C 697.294 760.285, 698.362 762.837, 698.411 763.250 C 698.460 763.663, 698.725 763.889, 699 763.754 C 699.275 763.619, 700.868 764.482, 702.540 765.673 C 705.881 768.051, 716.757 772, 719.968 772 C 721.086 772, 722 772.372, 722 772.827 C 722 773.282, 723.414 773.446, 725.142 773.192 C 726.870 772.939, 728.039 773.129, 727.740 773.616 C 727.441 774.102, 728.490 774.547, 730.071 774.605 C 734.328 774.761, 736.152 776.738, 735.801 780.815 C 735.338 786.178, 731.772 788.294, 723.324 788.219 C 719.571 788.186, 714.250 787.648, 711.500 787.023 C 706.108 785.799, 696 781.083, 696 779.791 C 696 779.356, 695.663 778.999, 695.250 778.998 C 694.837 778.997, 694.641 783.721, 694.814 789.497 C 695.178 801.656, 694.445 800.786, 707.048 804.030 C 724.658 808.564, 743.489 805.088, 751.403 795.843 C 758.998 786.969, 758.905 772.845, 751.197 764.624 C 748.115 761.336, 739.616 757.024, 736.191 757.010 C 734.921 757.004, 734.110 756.631, 734.388 756.181 C 734.667 755.730, 733.504 755.566, 731.805 755.815 C 729.822 756.106, 728.946 755.896, 729.359 755.228 C 729.753 754.590, 729.252 754.383, 728.067 754.693 C 725.696 755.313, 719.129 753.297, 716.750 751.219 C 715.788 750.378, 715 748.488, 715 747.019 C 715 743.021, 718.621 740.315, 725 739.546 C 729.037 739.060, 730.101 739.169, 729 739.956 C 727.885 740.753, 728.590 740.864, 731.750 740.386 C 734.318 739.998, 736 740.136, 736 740.734 C 736 741.278, 737.192 741.495, 738.649 741.216 C 740.645 740.835, 741.099 741.030, 740.494 742.010 C 739.963 742.869, 740.084 743.066, 740.851 742.592 C 742.023 741.868, 748.442 743.644, 750.750 745.331 C 751.727 746.045, 752 744.145, 752 736.641 C 752 727.239, 751.948 727.025, 749.507 726.412 C 748.121 726.065, 747.301 725.321, 747.661 724.739 C 748.018 724.163, 747.849 723.975, 747.287 724.323 C 746.725 724.670, 742.791 724.290, 738.544 723.477 C 729.155 721.681, 722.280 721.744, 715 723.695 M 461.539 725.250 C 461.320 725.938, 461.289 727.850, 461.471 729.500 C 461.653 731.150, 461.846 748.587, 461.901 768.250 L 462 804 472.500 804 L 483 804 483 764 L 483 724 472.469 724 C 464.923 724, 461.824 724.354, 461.539 725.250 M 641.500 739.929 C 634.771 741.553, 630.529 745.593, 628.510 752.299 L 627.144 756.838 644.709 756.954 L 662.273 757.070 661.710 752.871 C 661.119 748.469, 657.949 743.323, 656.089 743.750 C 655.490 743.888, 655.112 743.485, 655.250 742.856 C 655.549 741.488, 649.428 739.655, 646.830 740.334 C 645.822 740.598, 645.249 740.405, 645.558 739.907 C 646.185 738.892, 645.785 738.895, 641.500 739.929 M 307.309 741.466 C 300.095 744.603, 295.204 756.112, 296.365 767.217 C 297.543 778.488, 302.681 785.760, 311.060 788.016 C 315.262 789.148, 322.357 788.386, 321.439 786.902 C 321.141 786.418, 321.558 786.277, 322.367 786.587 C 324.148 787.271, 329.214 784.155, 328.417 782.866 C 328.106 782.362, 328.374 782.074, 329.013 782.225 C 330.569 782.593, 334.178 775.958, 333.625 773.749 C 333.384 772.785, 333.595 772.249, 334.093 772.558 C 334.610 772.877, 335 769.268, 335 764.173 C 335 756.319, 334.659 754.575, 332.200 749.868 C 328.590 742.958, 323.745 740.024, 316 740.056 C 312.975 740.068, 309.064 740.703, 307.309 741.466" stroke="none" fill="#fbfbfb" fill-rule="evenodd"/></svg>